<svg xmlns="http://www.w3.org/2000/svg" width="927.664" height="870.722" viewBox="0 0 927.664 870.722" role="img"><g transform="translate(0 -19.814)"><g transform="translate(745.554 207.533) rotate(172)"><path d="M97.47,70.391c0-14.683-5.13-27.22-14.893-36.548C75.65,27.22,64.98,17.936,64.98,8.121V0H32.49V8.121c0,9.918-10.712,19.22-17.6,25.722C5.352,42.845,0,56.233,0,70.391v.3a48.735,48.735,0,1,0,97.47-.3Z" transform="translate(19.824 28.498)" fill="#6c63ff"/><path d="M66.112,0a1.14,1.14,0,0,0-1.14,1.14V9.267c0,9.547,9.415,18.461,16.292,24.968.57.541,1.125,1.064,1.658,1.575C92.433,44.9,97.461,57.256,97.461,71.535a47.086,47.086,0,0,1-47.592,47.592h-.134A47.512,47.512,0,0,1,2.277,71.8v-.266c0-13.984,5.3-27,14.533-35.723.468-.442.954-.9,1.452-1.364,6.963-6.522,16.5-15.451,16.5-25.185V1.141a1.141,1.141,0,0,0-2.283,0V9.265c0,8.746-9.12,17.283-15.783,23.522l-1.458,1.37C5.557,43.3,0,56.928,0,71.535v.274a49.8,49.8,0,0,0,49.731,49.6h.141A49.612,49.612,0,0,0,99.741,72.056v-.522c0-14.917-5.271-27.84-15.243-37.37-.535-.512-1.093-1.043-1.666-1.583C76.258,26.357,67.251,17.834,67.251,9.269V1.145a1.14,1.14,0,0,0-1.14-1.14Z" transform="translate(18.691 27.355)" fill="#3f3d56"/><path d="M23.56,0H1.9a1.9,1.9,0,0,0,0,3.8H23.56a1.9,1.9,0,0,0,0-3.8Z" transform="translate(55.829 12.73)" fill="#6c63ff"/><path d="M9.783,0H5.123a8.911,8.911,0,0,0-4.6,1.273A1.061,1.061,0,0,0,.045,2.495a1.1,1.1,0,0,0,1.064.814H13.8a1.1,1.1,0,0,0,1.065-.814,1.061,1.061,0,0,0-.482-1.222A8.909,8.909,0,0,0,9.783,0Z" transform="translate(61.104 0)" fill="#3f3d56"/><path d="M21.9,0,.116,0,.051.147A1.8,1.8,0,0,0,.39,1.689a1.845,1.845,0,0,0,1.454.7H20.3a1.845,1.845,0,0,0,1.452-.7A1.785,1.785,0,0,0,22.094.165L22.06.018Z" transform="translate(57.49 6.729)" fill="#3f3d56"/><path d="M34.391,0H1.9a1.9,1.9,0,0,0,0,3.8h32.49a1.9,1.9,0,1,0,0-3.8Z" transform="translate(50.414 19.473)" fill="#6c63ff"/></g><rect width="33.699" height="44.416" transform="translate(451.051 814.062)" fill="#ed9da0"/><path d="M330.281,608.9H258.648a41.314,41.314,0,0,1-17.794-4.054L227.648,598.5a7.93,7.93,0,0,1,1.321-14.791l27.244-7.538,46.609-24.5.034.177c.871,4.412,2.222,11.084,2.393,11.488,4.78,5.476,9.69,8,14.594,7.5,8.554-.868,14.241-10.744,14.3-10.845l.043-.076.087.009a5.673,5.673,0,0,1,4.4,2.4c1.951,2.941.761,7.476.565,8.157,2.337,2.287,3.386,15.056,3.467,16.086,3.379,3.581,4.984,7.025,4.772,10.235-.186,2.805-1.741,5.411-4.624,7.744a20,20,0,0,1-12.575,4.353Z" transform="translate(148.72 280.235)" fill="#090814"/><path d="M217.951,97.7l23.624,33.719,28.077,213.634-15.222,30.2Z" transform="translate(-59.406 66.59)" fill="#6c63ff"/><path d="M909.889,1.738H0V-1H909.889Z" transform="translate(0 888.798)" fill="#e6e6e6"/></g></svg>
